<?xml version="1.0" encoding="utf-8"?>
<!-- Generator: Adobe Illustrator 25.4.1, SVG Export Plug-In . SVG Version: 6.00 Build 0)  -->
<svg version="1.1" id="Layer_1" xmlns="http://www.w3.org/2000/svg" xmlns:xlink="http://www.w3.org/1999/xlink" x="0px" y="0px"
	 viewBox="0 0 1200.2 858.5" style="enable-background:new 0 0 1200.2 858.5;" xml:space="preserve">
<style type="text/css">
	.st0{fill:#FF58AA;}
	.st1{fill:#84F23B;}
	.st2{fill:#B84DB7;}
	.st3{fill:#12F5E2;}
	.st4{fill:#13C08A;}
	.st5{fill:#00112D;}
	.st6{display:none;fill:#FFFFFF;}
	.st7{fill:#EDFF00;}
</style>
<g>
	<g>
		<path class="st0" d="M413,777.8l-205.7,14.1C112.7,791.9,37,715.2,37,620.6l-15.3-260c0-94.5,77-171.3,171.4-171.3l95.1,9.6
			c-3,11.9-4.4,24.4-4.4,37.1l34.3,391C318,691.9,356.2,748.3,413,777.8z"/>
		<path class="st1" d="M1171.8,620.6c0,94.5-76.8,171.3-171.3,171.3l-200.2-19.8c51.3-30.6,85-84,85-145.1l51.6-407
			c0-9.2-0.8-18.4-2.2-27.3l50.1-3.5c94.6,0,171.2,76.7,171.2,171.3L1171.8,620.6z"/>
		<path class="st2" d="M678.1,760c-2,0.1-4.3,0.1-6.3,0.1L413,777.7C356.2,748.3,318,691.8,318,627l-34.3-391
			c0-12.7,1.4-25.2,4.4-37.1l229.5,22.3c-92.2,2.7-161.2,78.3-161.2,171.1v180.8c0,94.5,71.9,171.3,166.7,171.3L678.1,760z"/>
		<path class="st3" d="M828.6,408.2v180.8c0,92.4-64.2,167.7-155.7,171.1l-152.4-15.7c-94.7,0-164-76.7-164-171.3V392.3
			c0-92.8,69.1-168.4,161.2-171.1l150.9,15.7C763.4,236.9,828.6,313.7,828.6,408.2z"/>
		<path class="st4" d="M936.8,220.1L885.4,627c0,61.1-33.8,114.5-85,145.1l-127.5-12c91.4-3.4,155.6-78.6,155.6-171.1V408.2
			c0-94.5-67.6-171.3-162.2-171.3l-155.8-15.7c1.7-0.1,4.8-0.1,6.5-0.1l417-28.3C935.4,201.7,936.8,210.9,936.8,220.1z"/>
		<path class="st3" d="M800.3,775.3c-29,17.6-63.4,30.9-100.6,30.9H503.6c-33,0-63.7-11.1-90.6-25.2l258.7-19.2
			c2.1,0,4.3,0.8,6.3,0.6L800.3,775.3z"/>
		<path class="st3" d="M513.2,221.2l-225-22.3c18.1-77.9,92.2-136,181.2-136l281.8-16.1c92.7,0,169.5,63.4,183.4,146L518.3,221
			C516.6,221,514.9,221,513.2,221.2z"/>
		<path class="st5" d="M901.7,472.5c0,165-149.7,314.6-314.8,314.6S303.8,653.4,303.8,488.3c0-165,118-298.8,283.1-298.8
			C751.9,189.5,901.7,307.4,901.7,472.5z"/>
		<path class="st6" d="M821.8,487c0,127-115.2,242.1-242.3,242.1S361.7,626.1,361.7,499.2s90.8-229.9,217.8-229.9
			C706.6,269.3,821.8,360,821.8,487z"/>
		<path class="st5" d="M850.9,465.2c0,131.2-119,250.1-250.2,250.1c-131.3,0-225-106.4-225-237.5s93.8-237.5,225-237.5
			C731.9,240.2,850.9,334,850.9,465.2z"/>
		<path class="st6" d="M758.3,329.8c0,16.8-15.2,32-32,32s-28.7-13.6-28.7-30.4s12-30.4,28.7-30.4S758.3,313,758.3,329.8z"/>
		<path class="st6" d="M806.4,395.9c0,9.4-8.5,17.9-17.9,17.9c-9.4,0-16.1-7.6-16.1-17s6.7-17,16.1-17
			C797.9,379.8,806.4,386.5,806.4,395.9z"/>
	</g>
</g>
<g id="XMLID_81_">
	<polygon id="XMLID_87_" class="st7" points="551.7,349.3 598.7,349.3 598.7,301.4 551.2,301.4 498.6,301.4 498.6,437.9 
		551.7,437.9 	"/>
	<g id="XMLID_84_">
		<rect id="XMLID_90_" x="551.7" y="440.4" class="st7" width="124" height="48.3"/>
	</g>
	<rect id="XMLID_92_" x="589" y="301.4" class="st7" width="50.5" height="47.9"/>
	<polygon id="XMLID_95_" class="st7" points="551.7,491.3 498.6,491.3 498.6,643.2 551.2,643.2 702.3,643.2 702.3,594.8 
		551.7,594.8 	"/>
	<path class="st7" d="M498.6,491.3c0.6-53.7,0.6-53.7,0.6-53.7l52.6,0.3v53.5"/>
</g>
</svg>
